# xmcd
#
# Track frame offsets: 
#        150
#        29133
#        53931
#        78913
#        103544
#        132898
#        154746
#        178815
#        196244
#        218974
#        244747
#        279818
#
# Disc length: 4099 seconds
#
# Revision: 0
# Processed by: cddbd v1.5.2PL0 Copyright (c) Steve Scherf et al.
# Submitted via: ExactAudioCopy v1.0b3
#
DISCID=a510010c
DTITLE=Truc Quyen, Mong Thi, My Huyen - Khong Bao Gio Quen Anh
DYEAR=2000
DGENRE=
TTITLE0=Truc Quyen - Khong bao gio quen anh
TTITLE1=Mong Thi - Thuong mai mot dong song
TTITLE2=My Huyen - Tinh doi
TTITLE3=Mong Thi - Tinh cho
TTITLE4=Truc Quyen - Gian doi
TTITLE5=Mong Thi - Sao em khong nho Go Cong
TTITLE6=My Huyen - Nho ve anh
TTITLE7=Truc Quyen - Duong ve que
TTITLE8=My Huyen - Gian hon 2
TTITLE9=Truc Quyen - La dieu bong 2
TTITLE10=hoa tau saxo - Hai vi sao lac
TTITLE11=hoa tau hac tieu - Nhung doi hoa sim
EXTD=
EXTT0=
EXTT1=
EXTT2=
EXTT3=
EXTT4=
EXTT5=
EXTT6=
EXTT7=
EXTT8=
EXTT9=
EXTT10=
EXTT11=
PLAYORDER=
